{"title":"People Like Us[2012]BRrip[Ac3-5.1]-=[CaLvIn]=-","uid":8041056,"size":847097414,"categoryP":"video","categoryS":"movies","magnet":"?xt=urn:btih:37c1e9e855af035efb164a7ac0c072dc0164a799&amp;dn=People+Like+Us%5B2012%5DBRrip%5BAc3-5.1%5D-%3D%5BCaLvIn%5D%3D-&amp;tr=udp%3A%2F%2Ftracker.openbittorrent.com%3A80&amp;tr=udp%3A%2F%2Fopen.demonii.com%3A1337&amp;tr=udp%3A%2F%2Ftracker.coppersurfer.tk%3A6969&amp;tr=udp%3A%2F%2Fexodus.desync.com%3A6969","seeders":0,"leechers":1,"uploader":"rhythmtheguru","files":15,"time":1358631081,"description":"General\nComplete name                    : People Like Us[2012]BRrip[Ac3-5.1]-=[CaLvIn]=-\nImdb Link                        : http://www.imdb.com/title/tt1716777/\nFormat                           : AVI\nFormat/Info                      : Audio Video Interleave\nFile size                        : 796 MiB\nDuration                         : 1h 54mn\nOverall bit rate                 : 971 Kbps\nWriting application              : VirtualDubMod 1.5.10.3 | www.virtualdub-fr.org || (build 2550/release)\nWriting library                  : VirtualDubMod build 2550/release\n\nVideo\nID                               : 0\nFormat                           : MPEG-4 Visual\nFormat profile                   : Advanced Simple@L5\nFormat settings, BVOP            : 2\nFormat settings, QPel            : No\nFormat settings, GMC             : No warppoints\nFormat settings, Matrix          : Default (H.263)\nCodec ID                         : XVID\nCodec ID/Hint                    : XviD\nDuration                         : 1h 54mn\nBit rate                         : 706 Kbps\nWidth                            : 720 pixels\nHeight                           : 304 pixels\nDisplay aspect ratio             : 16:9\nFrame rate                       : 23.976 fps\nColor space                      : YUV\nChroma subsampling               : 4:2:0\nBit depth                        : 8 bits\nScan type                        : Progressive\nCompression mode                 : Lossy\nBits/(Pixel*Frame)               : 0.134\nStream size                      : 578 MiB (73%)\nWriting library                  : XviD 1.2.1 (UTC 2008-12-04)\n\nAudio\nID                               : 1\nFormat                           : AC-3\nFormat/Info                      : Audio Coding 3\nMode extension                   : CM (complete main)\nCodec ID                         : 2000\nDuration                         : 1h 54mn\nBit rate mode                    : Constant\nBit rate                         : 256 Kbps\nChannel(s)                       : 6 channels\nChannel positions                : Front: L C R, Side: L R, LFE\nSampling rate                    : 48.0 KHz\nBit depth                        : 16 bits\nCompression mode                 : Lossy\nStream size                      : 210 MiB (26%)\nAlignment                        : Split accross interleaves\nInterleave, duration             : 42 ms (1.00 video frame)\nInterleave, preload duration     : 500 ms\n\nScreens\n &lt;a href=&quot;\nhttp://img401.imageshack.us/img401/4568/25486442.png&quot; rel=&quot;nofollow&quot; target=&quot;_NEW&quot;&gt;\nhttp://img401.imageshack.us/img401/4568/25486442.png&lt;/a&gt; &lt;a href=&quot;\nhttp://img252.imageshack.us/img252/703/29805243.png&quot; rel=&quot;nofollow&quot; target=&quot;_NEW&quot;&gt;\nhttp://img252.imageshack.us/img252/703/29805243.png&lt;/a&gt; &lt;a href=&quot;\nhttp://img687.imageshack.us/img687/9164/59345324.png&quot; rel=&quot;nofollow&quot; target=&quot;_NEW&quot;&gt;\nhttp://img687.imageshack.us/img687/9164/59345324.png&lt;/a&gt; &lt;a href=&quot;\nhttp://img832.imageshack.us/img832/3299/16694786.png&quot; rel=&quot;nofollow&quot; target=&quot;_NEW&quot;&gt;\nhttp://img832.imageshack.us/img832/3299/16694786.png&lt;/a&gt; &lt;a href=&quot;\nhttp://img833.imageshack.us/img833/4954/36559561.png&quot; rel=&quot;nofollow&quot; target=&quot;_NEW&quot;&gt;\nhttp://img833.imageshack.us/img833/4954/36559561.png&lt;/a&gt; &lt;a href=&quot;\nhttp://img17.imageshack.us/img17/8776/91929749.png&quot; rel=&quot;nofollow&quot; target=&quot;_NEW&quot;&gt;\nhttp://img17.imageshack.us/img17/8776/91929749.png&lt;/a&gt; &lt;a href=&quot;\nhttp://img820.imageshack.us/img820/7597/45082745.png&quot; rel=&quot;nofollow&quot; target=&quot;_NEW&quot;&gt;\nhttp://img820.imageshack.us/img820/7597/45082745.png&lt;/a&gt; &lt;a href=&quot;\nhttp://img138.imageshack.us/img138/479/40293480.png&quot; rel=&quot;nofollow&quot; target=&quot;_NEW&quot;&gt;\nhttp://img138.imageshack.us/img138/479/40293480.png&lt;/a&gt; &lt;a href=&quot;\nhttp://img526.imageshack.us/img526/9233/26463961.png&quot; rel=&quot;nofollow&quot; target=&quot;_NEW&quot;&gt;\nhttp://img526.imageshack.us/img526/9233/26463961.png&lt;/a&gt; &lt;a href=&quot;\nhttp://img708.imageshack.us/img708/8744/13980569.png&quot; rel=&quot;nofollow&quot; target=&quot;_NEW&quot;&gt;\nhttp://img708.imageshack.us/img708/8744/13980569.png&lt;/a&gt;","torrent":{"xt":"urn:btih:37c1e9e855af035efb164a7ac0c072dc0164a799","amp;dn":"People+Like+Us%5B2012%5DBRrip%5BAc3-5.1%5D-%3D%5BCaLvIn%5D%3D-","amp;tr":["udp%3A%2F%2Ftracker.openbittorrent.com%3A80","udp%3A%2F%2Fopen.demonii.com%3A1337","udp%3A%2F%2Ftracker.coppersurfer.tk%3A6969","udp%3A%2F%2Fexodus.desync.com%3A6969"],"infoHash":"37c1e9e855af035efb164a7ac0c072dc0164a799","infoHashBuffer":{"type":"Buffer","data":[55,193,233,232,85,175,3,94,251,22,74,122,192,192,114,220,1,100,167,153]},"announce":[],"urlList":[]}}